<svg width="114" height="128" viewBox="0 0 114 128" fill="none" xmlns="http://www.w3.org/2000/svg">
<g clip-path="url(#clip0_2690_237)">
<path d="M19.1873 117.433C23.5073 122.803 29.9973 128.003 37.4673 128.003C41.7173 128.003 45.3273 126.003 49.2073 124.543C52.7808 123.225 56.5587 122.548 60.3673 122.543C64.0417 122.522 67.6831 123.236 71.0773 124.643C72.8773 125.403 74.6573 126.213 76.4873 126.913C78.3442 127.63 80.317 127.999 82.3073 128.003C85.9893 127.961 89.5725 126.807 92.5873 124.693C101.347 118.693 107.837 108.153 112.437 98.9229C112.897 98.0029 113.337 97.0729 113.777 96.1529C114.507 94.6129 113.357 92.6629 111.317 91.5429C102.317 86.6029 97.0473 78.9629 96.1673 68.4229C95.2873 57.8829 99.3873 49.5629 107.617 43.5229L109.237 42.1929C110.137 41.4529 109.647 39.4029 107.957 37.8029C101.732 31.6729 93.3924 28.1651 84.6573 28.0029C82.962 28.0037 81.2696 28.1442 79.5973 28.4229C71.9973 29.7229 65.8973 33.3429 58.7373 33.3429C56.5649 33.3452 54.4055 33.0078 52.3373 32.3429C46.3373 30.4229 40.3773 28.0029 33.9973 28.0029C33.2973 28.0029 32.5873 28.0029 31.8773 28.0929C24.0119 28.9312 16.6676 32.4269 11.0573 38.0029C-0.00266457 48.9029 -1.57266 65.8329 1.18734 80.1429C3.83734 94.0029 10.3573 106.493 19.1873 117.433Z" fill="white"/>
<path d="M57.9973 28.0029C58.1404 28.0156 58.2843 28.0156 58.4273 28.0029C79.5573 24.0629 81.8673 7.74288 81.9973 1.78288C82.0019 1.54189 81.9566 1.30257 81.8643 1.07991C81.772 0.857246 81.6347 0.656051 81.461 0.488935C81.2873 0.321819 81.081 0.192384 80.8549 0.108744C80.6289 0.0251036 80.388 -0.0109384 80.1473 0.00287732C79.969 0.00269829 79.7912 0.0228279 79.6173 0.0628773C58.2773 5.00288 56.0573 20.3929 55.9973 26.1429C56.0024 26.3976 56.0586 26.6488 56.1626 26.8814C56.2667 27.114 56.4165 27.3233 56.6031 27.4968C56.7897 27.6704 57.0092 27.8046 57.2488 27.8915C57.4883 27.9785 57.7429 28.0163 57.9973 28.0029ZM77.7573 4.69288C76.9073 10.7529 73.3973 20.0829 60.1973 23.4829C60.9973 17.7929 64.3573 8.77288 77.7573 4.69288Z" fill="white"/>
</g>
<defs>
<clipPath id="clip0_2690_237">
<rect width="114" height="128" fill="white"/>
</clipPath>
</defs>
</svg>
