<svg width="492" height="236" viewBox="0 0 492 236" fill="none" xmlns="http://www.w3.org/2000/svg">
<line x1="262" y1="85" x2="262" y2="160" stroke="url(#paint0_linear_2423_2551)" stroke-width="2"/>
<line x1="252" y1="85" x2="252" y2="160" stroke="url(#paint1_linear_2423_2551)" stroke-width="2"/>
<line x1="242" y1="85" x2="242" y2="160" stroke="url(#paint2_linear_2423_2551)" stroke-width="2"/>
<line x1="232" y1="85" x2="232" y2="160" stroke="url(#paint3_linear_2423_2551)" stroke-width="2"/>
<rect x="202.5" y="151.5" width="87" height="84" rx="9.5" fill="#151515" stroke="url(#paint4_linear_2423_2551)"/>
<path d="M244.359 213.988C241.049 213.673 237.696 212.482 234.812 210.597C232.396 209.018 231.851 208.373 231.851 207.076C231.851 204.479 234.706 199.925 239.586 194.74C242.36 191.793 246.22 188.339 246.636 188.43C247.45 188.612 253.941 194.955 256.371 197.935C260.217 202.661 261.987 206.526 261.087 208.248C260.403 209.559 256.17 212.118 253.061 213.099C250.497 213.912 247.129 214.256 244.359 213.988ZM228.593 204.378C226.589 201.298 225.575 198.26 225.082 193.874C224.919 192.425 224.977 191.597 225.45 188.622C226.039 184.915 228.144 180.629 230.679 177.988C231.76 176.864 231.856 176.835 233.171 177.28C234.769 177.821 236.472 178.997 239.117 181.394L240.662 182.791L239.82 183.829C235.902 188.641 231.774 195.462 230.22 199.681C229.373 201.972 229.033 204.278 229.397 205.235C229.641 205.88 229.416 205.641 228.593 204.378ZM263.8 204.9C263.996 203.934 263.747 202.154 263.159 200.36C261.891 196.476 257.638 189.244 253.735 184.331L252.506 182.786L253.836 181.561C255.572 179.964 256.777 179.007 258.078 178.199C259.107 177.558 260.571 176.993 261.202 176.993C261.59 176.993 262.958 178.414 264.063 179.968C265.775 182.37 267.033 185.288 267.669 188.32C268.081 190.282 268.114 194.477 267.736 196.428C267.425 198.031 266.765 200.112 266.124 201.528C265.641 202.585 264.445 204.637 263.919 205.306C263.651 205.641 263.651 205.641 263.8 204.9ZM244.713 176.256C242.91 175.338 240.131 174.357 238.595 174.09C238.055 173.999 237.141 173.946 236.553 173.975C235.285 174.037 235.343 173.975 237.376 173.013C239.064 172.214 240.475 171.746 242.389 171.344C244.541 170.889 248.583 170.885 250.702 171.334C252.989 171.817 255.682 172.822 257.198 173.755L257.648 174.032L256.615 173.98C254.558 173.874 251.563 174.707 248.344 176.276C247.373 176.749 246.531 177.127 246.469 177.113C246.412 177.103 245.618 176.716 244.713 176.256Z" fill="#E1E1E1"/>
<line x1="60" y1="32" x2="404" y2="32" stroke="url(#paint5_linear_2423_2551)" stroke-width="2"/>
<line x1="60" y1="42" x2="404" y2="42" stroke="url(#paint6_linear_2423_2551)" stroke-width="2"/>
<line x1="60" y1="52" x2="404" y2="52" stroke="url(#paint7_linear_2423_2551)" stroke-width="2"/>
<line x1="60" y1="62" x2="406" y2="62" stroke="url(#paint8_linear_2423_2551)" stroke-width="2"/>
<rect x="404.5" y="3.5" width="87" height="84" rx="9.5" fill="#151515" stroke="url(#paint9_linear_2423_2551)"/>
<path d="M423.368 61.293C418.777 59.9891 418.017 57.3029 420.1 55.7424C421.601 54.766 423.326 53.9158 425.151 53.2764L425.32 53.2247L438.89 48.4074V53.9407L429.162 57.4618C427.459 58.1108 427.168 58.9743 428.584 59.4377C429.29 59.6157 430.098 59.7191 430.932 59.7191C432.121 59.7191 433.26 59.5104 434.314 59.1294L434.247 59.1505L438.931 57.4618V62.4245C438.64 62.4954 438.312 62.5299 437.989 62.5988C436.49 62.8592 434.765 63.0085 433.005 63.0085C429.567 63.0085 426.263 62.4379 423.185 61.3887L423.397 61.4519L423.368 61.293ZM451.965 61.8597L467.181 56.4164C468.908 55.7999 469.177 54.921 467.775 54.4596C467.073 54.2892 466.268 54.1916 465.439 54.1916C464.236 54.1916 463.079 54.3983 462.008 54.7755L462.079 54.7545L451.917 58.3425V52.6311L452.497 52.4282C454.527 51.7599 456.914 51.2411 459.376 50.9711L459.536 50.9558C460.441 50.8601 461.49 50.8065 462.551 50.8065C466.181 50.8065 469.662 51.4402 472.884 52.6043L472.675 52.5373C477.141 53.9752 477.605 56.0583 476.483 57.4943C475.402 58.5608 474.095 59.4051 472.639 59.9489L472.563 59.9738L451.915 67.4084V61.9152L451.965 61.8597ZM440.714 23V64.9825L450.174 68V32.7896C450.174 31.1392 450.909 30.0363 452.093 30.4193C453.63 30.8501 453.93 32.3665 453.93 34.0207V48.0781C459.828 50.9328 464.472 48.0723 464.472 40.5363C464.472 32.7915 461.751 29.3509 453.746 26.5938C450.294 25.3531 445.933 24.1162 441.472 23.1379L440.719 23H440.714Z" fill="white"/>
<rect x="0.5" y="0.5" width="87" height="84" rx="9.5" fill="#151515" stroke="url(#paint10_linear_2423_2551)"/>
<path d="M44.5 16C29.8883 16 18 27.8883 18 42.5C18 57.1117 29.8883 69 44.5 69C59.1117 69 71 57.1117 71 42.5C71 27.8883 59.1117 16 44.5 16ZM44.5 20.0769C56.8633 20.0769 66.9231 30.1367 66.9231 42.5C66.9231 54.8633 56.8633 64.9231 44.5 64.9231C34.0865 64.9231 25.3355 57.7767 22.8254 48.1376L30.2985 51.3386C30.6424 54.3901 33.2027 56.7692 36.3462 56.7692C39.7239 56.7692 42.4615 54.0316 42.4615 50.6538C42.4615 50.5886 42.4437 50.5259 42.4416 50.4627L50.9578 44.5066C55.2997 44.3231 58.7692 40.7714 58.7692 36.3846C58.7692 31.8817 55.1183 28.2308 50.6154 28.2308C46.2286 28.2308 42.6788 31.7003 42.4974 36.0422L36.5373 44.5584C36.472 44.5563 36.4114 44.5385 36.3462 44.5385C34.994 44.5385 33.7554 44.99 32.743 45.7329L22.1446 41.1901C22.8288 29.4374 32.5789 20.0769 44.5 20.0769ZM50.6154 30.2692C53.9931 30.2692 56.7308 33.0069 56.7308 36.3846C56.7308 39.7623 53.9931 42.5 50.6154 42.5C47.2377 42.5 44.5 39.7623 44.5 36.3846C44.5 33.0069 47.2377 30.2692 50.6154 30.2692ZM50.6154 32.3077C49.5341 32.3077 48.4971 32.7372 47.7326 33.5018C46.968 34.2664 46.5385 35.3033 46.5385 36.3846C46.5385 37.4659 46.968 38.5029 47.7326 39.2674C48.4971 40.032 49.5341 40.4615 50.6154 40.4615C51.6967 40.4615 52.7336 40.032 53.4982 39.2674C54.2628 38.5029 54.6923 37.4659 54.6923 36.3846C54.6923 35.3033 54.2628 34.2664 53.4982 33.5018C52.7336 32.7372 51.6967 32.3077 50.6154 32.3077ZM36.3462 46.5769C38.5987 46.5769 40.4231 48.4013 40.4231 50.6538C40.4231 52.9063 38.5987 54.7308 36.3462 54.7308C34.6975 54.7308 33.286 53.7492 32.6435 52.3419L34.24 53.0267C34.6314 53.1959 35.0408 53.2776 35.4424 53.2776C36.6288 53.2776 37.7598 52.5821 38.2572 51.4222C38.9217 49.871 38.202 48.0736 36.6487 47.409L35.1637 46.772C35.5404 46.6572 35.9318 46.5769 36.3462 46.5769Z" fill="white"/>
<rect x="202.5" y="3.5" width="87" height="84" rx="9.5" fill="#151515" stroke="url(#paint11_linear_2423_2551)"/>
<path d="M220.193 37.3554V40.938H226.054L226.071 41.7107H219.368V36.6178L229.439 36.6002L229.422 33L216 33.0351V45.2933H229.455L229.422 37.3554H220.193Z" fill="white"/>
<path d="M230.978 45.2758H234.346V41.8336H241.049V45.2758H244.417V33.0176H230.978V45.2758ZM241.049 36.6002V38.251H234.346V36.6002H241.049Z" fill="white"/>
<path d="M253.514 41.219L250.872 33.0176H246.118L246.101 45.2758H249.469V39.7438L251.252 45.2758H255.776L257.526 39.7965L257.509 45.2758H260.893L260.91 33H256.139L253.514 41.219Z" fill="white"/>
<path d="M276 36.6002V33.0176H262.578V45.2758H276V41.6931H265.946V40.938H276V37.3378H265.946V36.6002H276Z" fill="white"/>
<path d="M226.343 54.5863L220.697 46.4595L216.017 46.4415L216 58.9098H219.459V50.8727L225.071 58.9457H229.802V46.4415H226.343V54.5863Z" fill="#F15025"/>
<path d="M231.414 46.4774V56.6494L233.67 58.9816L245.183 58.9995V48.8096L242.927 46.4774H231.414ZM241.724 55.3218H235.077L234.873 55.1065V50.1372H241.52L241.724 50.3345V55.3218Z" fill="#F15025"/>
<path d="M258.379 46.4236H246.832L246.815 58.9457H260.584V48.7737L258.379 46.4236ZM250.274 55.2859V50.0833H256.938L257.125 50.2807V55.2859H250.274Z" fill="#F15025"/>
<path d="M276 50.0833V46.4236H262.215V58.9457H276V55.2859H265.674V54.5145H276V50.8368H265.674V50.0833H276Z" fill="#F15025"/>
<defs>
<linearGradient id="paint0_linear_2423_2551" x1="260.5" y1="85" x2="260.5" y2="160" gradientUnits="userSpaceOnUse">
<stop stop-color="#151515"/>
<stop offset="0.49" stop-color="#D3D3D3"/>
<stop offset="1" stop-color="#202020"/>
</linearGradient>
<linearGradient id="paint1_linear_2423_2551" x1="250.5" y1="85" x2="250.5" y2="160" gradientUnits="userSpaceOnUse">
<stop stop-color="#151515"/>
<stop offset="0.49" stop-color="#D3D3D3"/>
<stop offset="1" stop-color="#202020"/>
</linearGradient>
<linearGradient id="paint2_linear_2423_2551" x1="240.5" y1="85" x2="240.5" y2="160" gradientUnits="userSpaceOnUse">
<stop stop-color="#151515"/>
<stop offset="0.49" stop-color="#D3D3D3"/>
<stop offset="1" stop-color="#202020"/>
</linearGradient>
<linearGradient id="paint3_linear_2423_2551" x1="230.5" y1="85" x2="230.5" y2="160" gradientUnits="userSpaceOnUse">
<stop stop-color="#151515"/>
<stop offset="0.49" stop-color="#D3D3D3"/>
<stop offset="1" stop-color="#202020"/>
</linearGradient>
<linearGradient id="paint4_linear_2423_2551" x1="217" y1="114.5" x2="265" y2="206" gradientUnits="userSpaceOnUse">
<stop stop-color="#818181"/>
<stop offset="1" stop-color="#1E1E1E"/>
</linearGradient>
<linearGradient id="paint5_linear_2423_2551" x1="60" y1="33.5" x2="404" y2="33.5" gradientUnits="userSpaceOnUse">
<stop stop-color="#151515"/>
<stop offset="0.49" stop-color="#D3D3D3"/>
<stop offset="1" stop-color="#202020"/>
</linearGradient>
<linearGradient id="paint6_linear_2423_2551" x1="60" y1="43.5" x2="404" y2="43.5" gradientUnits="userSpaceOnUse">
<stop stop-color="#151515"/>
<stop offset="0.49" stop-color="#D3D3D3"/>
<stop offset="1" stop-color="#202020"/>
</linearGradient>
<linearGradient id="paint7_linear_2423_2551" x1="60" y1="53.5" x2="404" y2="53.5" gradientUnits="userSpaceOnUse">
<stop stop-color="#151515"/>
<stop offset="0.49" stop-color="#D3D3D3"/>
<stop offset="1" stop-color="#202020"/>
</linearGradient>
<linearGradient id="paint8_linear_2423_2551" x1="60" y1="63.5" x2="406" y2="63.5" gradientUnits="userSpaceOnUse">
<stop stop-color="#151515"/>
<stop offset="0.49" stop-color="#D3D3D3"/>
<stop offset="1" stop-color="#202020"/>
</linearGradient>
<linearGradient id="paint9_linear_2423_2551" x1="419" y1="-33.5" x2="467" y2="58" gradientUnits="userSpaceOnUse">
<stop stop-color="#818181"/>
<stop offset="1" stop-color="#1E1E1E"/>
</linearGradient>
<linearGradient id="paint10_linear_2423_2551" x1="15" y1="-36.5" x2="63" y2="55" gradientUnits="userSpaceOnUse">
<stop stop-color="#818181"/>
<stop offset="1" stop-color="#1E1E1E"/>
</linearGradient>
<linearGradient id="paint11_linear_2423_2551" x1="217" y1="-33.5" x2="265" y2="58" gradientUnits="userSpaceOnUse">
<stop stop-color="#818181"/>
<stop offset="1" stop-color="#1E1E1E"/>
</linearGradient>
</defs>
</svg>
