<svg width="21" height="22" viewBox="0 0 21 22" fill="none" xmlns="http://www.w3.org/2000/svg">
<path d="M14.8593 14.3269C17.4138 12.9193 19.3504 11.8467 19.5173 11.7633C20.0513 11.4783 20.6027 10.7241 19.5173 10.1382C19.1669 9.95404 17.2801 8.9148 14.8593 7.57471L11.5034 10.9758L14.8593 14.3269Z" fill="#FFD900"/>
<path d="M11.5035 10.9756L0.818054 21.783C1.06885 21.8164 1.35204 21.7497 1.68588 21.5655C2.38679 21.1805 9.81689 17.1085 14.8594 14.3275L11.5035 10.9756Z" fill="#F43249"/>
<path d="M11.5034 10.9761L14.8593 7.59169C14.8593 7.59169 2.43733 0.78871 1.68577 0.387015C1.40258 0.21867 1.08535 0.168666 0.801331 0.21867L11.5034 10.9761Z" fill="#00EE76"/>
<path d="M11.5035 10.9762L0.801391 0.21875C0.367062 0.31959 0 0.704618 0 1.49217C0 2.74893 0 19.4709 0 20.5102C0 21.2311 0.284016 21.7503 0.818 21.8003L11.5035 10.9762Z" fill="#00D3FF"/>
</svg>
