<svg width="100" height="39" viewBox="0 0 100 39" fill="none" xmlns="http://www.w3.org/2000/svg">
<rect x="0.5" y="0.5" width="39" height="38" rx="3.5" fill="#151515" stroke="url(#paint0_linear_2423_2552)"/>
<path d="M31 19.4889C30.7517 7.70822 15.1986 3.31393 9.20764 14.3572C9.47593 14.5555 9.83556 14.8136 10.1039 15.0011C9.66146 15.9326 9.34964 16.9245 9.1741 17.9429C9.05922 18.5984 9 19.2603 9 19.9266C9 26.0358 13.9313 31 20.0036 31C26.0801 31 31 26.0437 31 19.9266V19.4889ZM11.7122 21.4618C11.5673 22.6599 11.6601 23.0308 11.6601 23.1759L11.3925 23.2701C11.2926 23.0746 11.0436 22.3789 10.928 21.4424C10.6376 17.8796 13.0536 14.6712 16.7362 14.0646C20.107 13.5673 23.3372 15.6782 24.0879 18.6278L23.8203 18.722C23.7383 18.6393 23.6041 18.4 23.0875 17.8796C19.0146 13.7764 12.6184 15.6552 11.7115 21.4654L11.7122 21.4618ZM22.1813 23.457C21.6197 24.2727 20.6978 24.7593 19.7174 24.7557C18.0563 24.7593 16.7113 23.4045 16.7148 21.7313C16.7184 20.1523 17.9336 18.8384 19.4984 18.722C20.4681 18.681 21.3743 19.2079 21.7988 20.0617C22.2634 20.9968 22.0921 22.1316 21.3679 22.8841C21.6454 23.0825 21.9137 23.2701 22.1813 23.457ZM28.4398 23.5734C26.8529 27.1965 23.5827 29.099 20.097 29.0465C13.4033 28.713 11.4567 20.9342 15.9307 18.1305L16.1276 18.3253C16.0534 18.4309 15.7851 18.6408 15.3734 19.4601C14.8903 20.4556 14.734 21.4553 14.7968 22.077C15.1458 27.5113 22.7093 28.6239 25.3066 23.2406C28.6182 15.878 19.8287 8.3867 12.0319 14.1106L11.857 13.9346C13.9092 10.6938 17.9222 9.24846 21.7468 10.2144C27.5957 11.7 30.7403 17.8387 28.4398 23.5734Z" fill="#FAF4F4"/>
<rect x="60.5" y="0.5" width="39" height="38" rx="3.5" fill="#151515" stroke="url(#paint1_linear_2423_2552)"/>
<path fill-rule="evenodd" clip-rule="evenodd" d="M90.655 5.00012H70.2628C68.61 5.00012 68 5.61011 68 7.26374V27.2174C68 27.4045 68.0075 27.5783 68.0241 27.7394C68.0617 28.1003 68.0688 28.4501 68.4045 28.8483C68.4373 28.8873 68.78 29.1424 68.78 29.1424C68.9644 29.2328 69.0903 29.2993 69.2982 29.383L79.3396 33.59C79.8608 33.829 80.0788 33.9221 80.4574 33.9146V33.9147C80.4579 33.9147 80.4584 33.9147 80.4589 33.9147C80.4594 33.9147 80.4599 33.9147 80.4604 33.9147V33.9146C80.839 33.9221 81.057 33.829 81.5783 33.59L91.6197 29.383C91.8276 29.2993 91.9535 29.2328 92.1379 29.1424C92.1379 29.1424 92.4806 28.8873 92.5133 28.8483C92.849 28.4501 92.8561 28.1003 92.8938 27.7394C92.9103 27.5783 92.9179 27.4045 92.9179 27.2174V7.26374C92.9179 5.61011 92.3078 5.00012 90.655 5.00012Z" fill="#0F0F0F"/>
<path d="M89.29 25.0603L89.2854 25.1063L89.2809 25.1569L89.2716 25.2029L89.2579 25.2489L89.2489 25.2904L89.2351 25.3364L89.2167 25.3778L89.1983 25.4147L89.1801 25.4561L89.1571 25.4929L89.1341 25.5298L89.1068 25.5666L89.0837 25.6034L89.0564 25.6356L89.0242 25.6678L88.9968 25.6954L88.96 25.7277L88.9281 25.7553L88.8913 25.7829L88.8547 25.8056L88.8181 25.8332L88.7767 25.8562L88.7355 25.8746L88.6944 25.8976L88.6484 25.9161L88.6026 25.9345L88.5569 25.9483L88.5112 25.9621L88.4697 25.9759L88.424 25.9851L88.3828 25.9943L88.3417 26.0035L88.2956 26.0127L88.2498 26.0173L88.2087 26.0219L88.1627 26.0265L88.1124 26.0312L88.0666 26.0357H88.0208H87.9705H87.9198H87.8741L87.8283 26.0312H87.778L87.7322 26.0265L87.6862 26.0219L87.6359 26.0173L87.5901 26.0081L87.5444 26.0035L87.4983 25.9943L87.4525 25.9851L87.4068 25.9759L87.361 25.9667L87.315 25.9529L87.2739 25.9437L87.2281 25.9299L87.1823 25.9161L87.141 25.8976L87.0952 25.8838L87.054 25.8701L87.0083 25.8516L86.9669 25.8332L86.9257 25.8148L86.8845 25.7921L86.8431 25.7737L86.802 25.7506L86.7654 25.7277L86.724 25.7046L86.6874 25.6816L86.6506 25.6586L86.6141 25.631L86.5775 25.6034L86.5407 25.5757L86.5041 25.5481L86.4719 25.5205L86.4354 25.4883L86.463 25.4515L86.4949 25.4193L86.5225 25.3824L86.5545 25.3456L86.5821 25.3134L86.6095 25.2766L86.6417 25.2397L86.669 25.2076L86.7013 25.1707L86.7286 25.1385L86.7608 25.1017L86.7882 25.0648L86.8158 25.0327L86.8477 24.9958L86.8753 24.959L86.9073 24.9268L86.9349 24.89L86.9714 24.9176L87.0126 24.9452L87.0494 24.9728L87.0906 25.0005L87.1274 25.0235L87.1686 25.051L87.2051 25.0741L87.2466 25.0925L87.2831 25.1155L87.3242 25.1339L87.3657 25.1523L87.4068 25.1707L87.448 25.1846L87.4894 25.2029L87.5351 25.2167L87.5809 25.2306L87.622 25.2444L87.6681 25.2536L87.7138 25.2628L87.7596 25.272L87.8099 25.2766L87.8559 25.2858H87.9017L87.952 25.2904H87.9978H88.0528L88.1031 25.2858L88.1492 25.2766L88.1903 25.2674L88.2315 25.2582L88.2683 25.2444L88.3003 25.226L88.3371 25.1984L88.3644 25.1661L88.3828 25.1293L88.3967 25.0879L88.4012 25.0418V25.0327L88.3967 24.9774L88.3782 24.9314L88.3552 24.8992L88.3233 24.8716L88.2864 24.8439L88.2498 24.8256L88.2087 24.8071L88.1627 24.7887L88.1077 24.7657L88.0758 24.7565L88.0393 24.7473L87.9978 24.7335L87.9567 24.7243L87.9109 24.7105L87.8649 24.7013L87.8146 24.6875L87.7688 24.6783L87.7184 24.6645L87.6727 24.6553L87.6266 24.6415L87.5809 24.6322L87.5351 24.6184L87.4937 24.6047L87.448 24.5954L87.4068 24.5816L87.3657 24.5678L87.3242 24.554L87.2739 24.5356L87.2281 24.5171L87.1823 24.4987L87.1363 24.4803L87.0952 24.4573L87.0494 24.4343L87.0126 24.4113L86.9714 24.3883L86.9349 24.3607L86.8981 24.3377L86.8661 24.31L86.834 24.2778L86.802 24.2456L86.7744 24.2134L86.747 24.1812L86.724 24.149L86.7013 24.1121L86.6783 24.0707L86.6598 24.0388L86.646 24.002L86.6325 23.9605L86.6187 23.9237L86.6095 23.8777L86.6003 23.8362L86.5957 23.7902L86.5911 23.7442L86.5865 23.6936V23.6429V23.6338V23.5877L86.5911 23.5417L86.5957 23.5003L86.6003 23.4542L86.6095 23.4129L86.6187 23.3714L86.6325 23.3299L86.6417 23.2886L86.6598 23.2471L86.6783 23.2057L86.6966 23.1643L86.7194 23.1228L86.7424 23.0815L86.7697 23.0446L86.7974 23.0078L86.8293 22.971L86.8615 22.9388L86.8935 22.9019L86.9303 22.8697L86.9623 22.8467L86.9991 22.8191L87.0357 22.7915L87.0722 22.7685L87.1136 22.7455L87.1548 22.727L87.1959 22.704L87.2373 22.6857L87.2831 22.6718L87.3288 22.6534L87.3702 22.6396L87.4068 22.6304L87.448 22.6212L87.4894 22.612L87.5351 22.6028L87.5763 22.5936L87.622 22.589L87.6681 22.5844L87.7138 22.5798L87.7596 22.5752H87.8053H87.8559H87.9063H87.9567L88.007 22.5798L88.0574 22.5844H88.1031L88.1537 22.589L88.1995 22.5982L88.2498 22.6028L88.2956 22.612L88.3371 22.6212L88.3828 22.6304L88.4285 22.6396L88.4697 22.6488L88.5157 22.6626L88.5569 22.6764L88.5981 22.6857L88.6441 22.704L88.6852 22.7178L88.7264 22.7362L88.7675 22.7547L88.8135 22.7731L88.8547 22.7961L88.8913 22.8145L88.9327 22.8375L88.9739 22.8605L89.0104 22.8836L89.0518 22.9112L89.0884 22.9341L89.1252 22.9618L89.1618 22.9894L89.1983 23.017L89.1709 23.0539L89.1479 23.0907L89.1206 23.1275L89.093 23.1643L89.0656 23.2057L89.0426 23.2425L89.015 23.2794L88.9876 23.3162L88.9647 23.353L88.9373 23.3899L88.9097 23.4267L88.8866 23.4635L88.8593 23.5049L88.8317 23.5417L88.8043 23.5785L88.7813 23.6153L88.754 23.6521L88.7172 23.6246L88.676 23.6015L88.6394 23.5785L88.6026 23.5509L88.5615 23.5325L88.5247 23.5095L88.4835 23.491L88.447 23.4727L88.4056 23.4542L88.369 23.4359L88.3279 23.422L88.2911 23.4036L88.2407 23.3899L88.1949 23.376L88.1492 23.3622L88.1031 23.353L88.0574 23.3438L88.0116 23.3346L87.9659 23.3299L87.9198 23.3254L87.8787 23.3208H87.8329H87.778L87.7276 23.3299L87.6816 23.3392L87.6405 23.3484L87.6039 23.3668L87.5717 23.3852L87.5305 23.422L87.5029 23.4635L87.4848 23.5049L87.4801 23.5509V23.5601L87.4848 23.6199L87.5075 23.6706L87.5259 23.6982L87.5579 23.7304L87.5993 23.7534L87.6359 23.7764L87.6816 23.7949L87.7322 23.8133L87.7872 23.8317L87.8237 23.8409L87.8603 23.8547L87.9017 23.8639L87.9428 23.8777L87.9886 23.8869L88.0393 23.9007L88.0896 23.9145L88.14 23.9283L88.1903 23.9375L88.236 23.9513L88.2864 23.9651L88.3324 23.9743L88.3782 23.9881L88.424 24.002L88.4651 24.0158L88.5112 24.0296L88.5523 24.0434L88.5934 24.0572L88.6441 24.0753L88.6898 24.0984L88.7355 24.1167L88.7813 24.1397L88.8228 24.1628L88.8639 24.1858L88.9004 24.2088L88.9373 24.2364L88.9739 24.2594L89.0104 24.2916L89.0472 24.3238L89.0791 24.3607L89.1113 24.3929L89.1387 24.4297L89.1663 24.4711L89.1891 24.5079L89.2121 24.5494L89.2305 24.5862L89.2443 24.6276L89.2579 24.669L89.267 24.7105L89.2762 24.7565L89.2854 24.8026L89.29 24.8486L89.2947 24.8992V24.9498V24.959V25.0097L89.29 25.0603ZM86.0766 25.9805H86.0306H85.9849H85.9391H85.8934H85.8474H85.8016H85.7559H85.7101H85.6595H85.6137H85.568H85.5222H85.4761H85.4304H85.3847H85.3389H85.2929H85.2471H85.2014H85.1556H85.1098H85.0638H85.0181H84.9724H84.9266H84.8805H84.8348H84.789H84.7387H84.6927H84.6469H84.6011H84.5554H84.5094H84.4636H84.4179H84.3721H84.3261H84.2803H84.2346H84.1888H84.1427H84.0971H84.0513H84.0055H83.9595H83.9137H83.8634H83.8176H83.7719H83.7258H83.6801H83.6343H83.5886H83.5426H83.4968H83.4511V25.9345V25.8884V25.8424V25.7967V25.7506V25.7046V25.6586V25.6126V25.5666V25.5205V25.4745V25.4285V25.3824V25.3364V25.2904V25.2444V25.1984V25.1523V25.1109V25.0648V25.0188V24.9728V24.9268V24.8807V24.8347V24.7887V24.7426V24.6966V24.6506V24.6047V24.5586V24.5126V24.4666V24.4205V24.3745V24.3285V24.2824V24.2364V24.1904V24.1444V24.0984V24.0526V24.0066V23.9605V23.9145V23.8685V23.8225V23.7764V23.7304V23.6844V23.6383V23.5923V23.5463V23.5003V23.4589V23.4129V23.3668V23.3208V23.2748V23.2287V23.1827V23.1367V23.0907V23.0446V22.9986V22.9526V22.9065V22.8605V22.8145V22.7685V22.7225V22.6764V22.6304H83.4968H83.5426H83.5886H83.6343H83.6801H83.7258H83.7719H83.8176H83.8634H83.9092H83.9552H84.001H84.0466H84.0924H84.1338H84.1796H84.2254H84.2711H84.3171H84.3629H84.4086H84.4544H84.5004H84.5462H84.5919H84.6377H84.6837H84.7295H84.7752H84.821H84.867H84.9128H84.9585H85.0042H85.05H85.0961H85.1418H85.1876H85.2333H85.2794H85.3251H85.3708H85.4166H85.4581H85.5038H85.5495H85.5953H85.6413H85.6871H85.7328H85.7786H85.8246H85.8704H85.9161H85.9619H86.0079H86.0537H86.0994V22.6764V22.7178V22.7638V22.8099V22.8559V22.8973V22.9434V22.9894V23.0308V23.0769V23.1228V23.1643V23.2103V23.2563V23.3024V23.3438V23.3899H86.0537H86.0079H85.9619H85.9161H85.8704H85.8246H85.7832H85.7374H85.6917H85.6459H85.5999H85.5542H85.5084H85.4626H85.4166H85.3708H85.3251H85.2794H85.2333H85.1922H85.1464H85.1007H85.0546H85.0089H84.9631H84.9174H84.8713H84.8256H84.7798H84.7341H84.6881H84.6423H84.6011H84.5554H84.5094H84.4636H84.4179H84.3721H84.3261V23.4359V23.4819V23.5278V23.5739V23.6199V23.6614V23.7074V23.7534V23.7994V23.8455V23.8915V23.9375H84.3721H84.4179H84.4636H84.5094H84.5554H84.6011H84.6469H84.6927H84.7341H84.7798H84.8256H84.8713H84.9174H84.9631H85.0089H85.0546H85.1007H85.1464H85.1922H85.2379H85.2839H85.3297H85.3755H85.4213H85.4673H85.513H85.5542H85.5999H85.6459H85.6917H85.7374H85.7832H85.8292H85.875H85.9207V23.9835V24.0249V24.0707V24.1167V24.1582V24.2042V24.2502V24.2916V24.3377V24.3837V24.4297V24.4711V24.5171V24.5632V24.6047V24.6506H85.875H85.8292H85.7832H85.7374H85.6917H85.6459H85.5999H85.5542H85.513H85.4673H85.4213H85.3755H85.3297H85.2839H85.2379H85.1922H85.1464H85.1007H85.0546H85.0089H84.9631H84.9174H84.8713H84.8256H84.7798H84.7341H84.6927H84.6469H84.6011H84.5554H84.5094H84.4636H84.4179H84.3721H84.3261V24.6966V24.7473V24.7933V24.8394V24.89V24.936V24.982V25.0327V25.0786V25.1247V25.1753V25.2213H84.3721H84.4179H84.4636H84.5094H84.5554H84.6011H84.6469H84.6927H84.7387H84.789H84.8348H84.8805H84.9266H84.9724H85.0181H85.0638H85.1098H85.1556H85.2014H85.2471H85.2929H85.3389H85.3847H85.4304H85.4761H85.5222H85.568H85.6137H85.6595H85.7101H85.7559H85.8016H85.8474H85.8934H85.9391H85.9849H86.0306H86.0766H86.1224V25.2674V25.3088V25.3548V25.4008V25.4469V25.4883V25.5343V25.5803V25.6218V25.6678V25.7138V25.7553V25.801V25.847V25.893V25.9345V25.9805H86.0766ZM82.7287 25.9805H82.683H82.6372H82.5866H82.5409H82.4951H82.4493H82.4033H82.3575H82.3072H82.2614H82.2156H82.1696H82.1239H82.0782H82.0278H81.9818H81.936H81.8902V25.9345V25.8884V25.8424V25.7964V25.7501V25.7041V25.658V25.612V25.566V25.52V25.4739V25.4277V25.3816V25.3356V25.2896V25.2435V25.1972V25.1512V25.1052V25.0592V25.0131V24.9671V24.9208V24.8748V24.8288V24.7827V24.7367V24.6907V24.6444V24.5983V24.5523V24.5063V24.4603V24.4143V24.368V24.322V24.2759V24.2299V24.1839V24.1376V24.0916V24.0455V23.9995L81.8673 24.0363L81.8399 24.078L81.8169 24.1148L81.7895 24.1517L81.7665 24.1931L81.7389 24.2299L81.7162 24.2667L81.6931 24.3084L81.6658 24.3452L81.6428 24.3821L81.6152 24.4189L81.5925 24.4606L81.5648 24.4974L81.5421 24.5342L81.519 24.5756L81.4914 24.6127L81.4687 24.6496L81.4411 24.6909L81.4184 24.7278L81.3908 24.7646L81.368 24.8063L81.345 24.8432L81.3174 24.88L81.2947 24.9214L81.267 24.9585L81.2443 24.9953L81.2167 25.0321L81.1936 25.0735L81.1709 25.1106L81.1433 25.1474L81.1206 25.1889L81.0929 25.2257L81.07 25.2625L81.0426 25.3042L81.0196 25.341H81.0014L80.9738 25.2996L80.9508 25.2625L80.9234 25.2211L80.9004 25.1843L80.8731 25.1429L80.8501 25.1058L80.8228 25.0643L80.7997 25.0275L80.7721 24.9861L80.7493 24.9493L80.7217 24.9075L80.699 24.8707L80.6714 24.8293L80.6484 24.7925L80.6211 24.7508L80.598 24.714L80.5707 24.6726L80.5431 24.6358L80.5201 24.5941L80.4927 24.5573L80.4697 24.5158L80.4424 24.479L80.4194 24.4373L80.392 24.4005L80.369 24.3591L80.3414 24.3222L80.3186 24.2808L80.291 24.2437L80.2683 24.2023L80.2406 24.1655L80.2176 24.124L80.1903 24.0873L80.1672 24.0455L80.1399 24.0087V24.0547V24.1008V24.1468V24.1931V24.2391V24.2851V24.3312V24.3772V24.4235V24.4695V24.511V24.557V24.603V24.649V24.6953V24.7414V24.7874V24.8334V24.8794V24.9255V24.9717V25.0178V25.0638V25.1098V25.1559V25.2019V25.2482V25.2942V25.3402V25.3862V25.4323V25.4785V25.52V25.566V25.612V25.658V25.7041V25.7501V25.7964V25.8424V25.8884V25.9345V25.9805H80.0942H80.0482H80.0024H79.9566H79.9109H79.8649H79.8191H79.7734H79.7276H79.6816H79.6358H79.59H79.5443H79.4983H79.4526H79.4068H79.361H79.315H79.2692V25.9345V25.8884V25.8424V25.7967V25.7506V25.7046V25.6586V25.6126V25.5666V25.5205V25.4745V25.4285V25.3824V25.3364V25.2904V25.2444V25.1984V25.1523V25.1109V25.0648V25.0188V24.9728V24.9268V24.8807V24.8347V24.7887V24.7426V24.6966V24.6506V24.6047V24.5586V24.5126V24.4666V24.4205V24.3745V24.3285V24.2824V24.2364V24.1904V24.1444V24.0984V24.0526V24.0066V23.9605V23.9145V23.8685V23.8225V23.7764V23.7304V23.6844V23.6383V23.5923V23.5463V23.5003V23.4589V23.4129V23.3668V23.3208V23.2748V23.2287V23.1827V23.1367V23.0907V23.0446V22.9986V22.9526V22.9065V22.8605V22.8145V22.7685V22.7225V22.6764V22.6304H79.315H79.361H79.4022H79.4479H79.4937H79.5397H79.5809H79.6266H79.6726H79.7184H79.7596H79.8053H79.8514H79.8971H79.9382H79.984H80.03H80.0758H80.1169H80.1627H80.2087L80.2315 22.6672L80.2545 22.7086L80.2818 22.7452L80.3048 22.7866L80.3278 22.8234L80.3506 22.8649L80.3736 22.9014L80.401 22.9429L80.4239 22.9797L80.447 23.0165L80.4697 23.0576L80.4927 23.0945L80.5201 23.1358L80.5431 23.1727L80.5661 23.2138L80.5888 23.2506L80.6164 23.2874L80.6395 23.3287L80.6622 23.3654L80.6852 23.4068L80.708 23.4437L80.7356 23.4848L80.7586 23.5217L80.7813 23.5631L80.8043 23.5996L80.8271 23.6364L80.8547 23.6779L80.8777 23.7147L80.9004 23.7561L80.9234 23.7927L80.9462 23.8341L80.9738 23.8709L80.9968 23.9121L81.0196 23.9489L81.0426 23.9121L81.0656 23.8709L81.0929 23.8341L81.1159 23.7927L81.1387 23.7561L81.1617 23.7147L81.1891 23.6779L81.2121 23.6364L81.2351 23.5996L81.2578 23.5631L81.2854 23.5217L81.3082 23.4848L81.3312 23.4437L81.3542 23.4068L81.3815 23.3654L81.4045 23.3287L81.4276 23.2874L81.4503 23.2506L81.4734 23.2138L81.5007 23.1727L81.5237 23.1358L81.5467 23.0945L81.5695 23.0576L81.597 23.0165L81.6198 22.9797L81.6428 22.9429L81.6658 22.9014L81.6931 22.8649L81.7162 22.8234L81.7389 22.7866L81.7619 22.7452L81.7895 22.7086L81.8123 22.6672L81.8353 22.6304H81.881H81.9268H81.9682H82.014H82.0597H82.1055H82.1469H82.1927H82.2384H82.2842H82.3256H82.3714H82.4171H82.4629H82.5043H82.5501H82.5958H82.6415H82.683H82.7287H82.7745V22.6764V22.7225V22.7685V22.8145V22.8605V22.9065V22.9526V22.9986V23.0446V23.0907V23.1367V23.1827V23.2287V23.2748V23.3208V23.3668V23.4129V23.4589V23.5003V23.5463V23.5923V23.6383V23.6844V23.7304V23.7764V23.8225V23.8685V23.9145V23.9605V24.0066V24.0526V24.0984V24.1444V24.1904V24.2364V24.2824V24.3285V24.3745V24.4205V24.4666V24.5126V24.5586V24.6047V24.6506V24.6966V24.7426V24.7887V24.8347V24.8807V24.9268V24.9728V25.0188V25.0648V25.1109V25.1523V25.1984V25.2444V25.2904V25.3364V25.3824V25.4285V25.4745V25.5205V25.5666V25.6126V25.6586V25.7046V25.7506V25.7967V25.8424V25.8884V25.9345V25.9805H82.7287ZM77.4123 24.6L77.3985 24.5583L77.3803 24.5123L77.3619 24.4709L77.3481 24.4292L77.33 24.3878L77.3116 24.3417L77.2977 24.3L77.2793 24.2586L77.2612 24.2172L77.2474 24.1755L77.2289 24.1295L77.2154 24.088L77.197 24.0464L77.1786 24.0049L77.1648 23.9635L77.1466 23.9172L77.1283 23.8758L77.1145 23.8344L77.096 23.7927L77.0779 23.7466L77.0641 23.705L77.0457 23.6635L77.0275 23.705L77.0138 23.7466L76.9954 23.7927L76.9769 23.8344L76.9634 23.8758L76.945 23.9172L76.9266 23.9635L76.9084 24.0049L76.8946 24.0464L76.8762 24.088L76.8578 24.1295L76.8442 24.1755L76.8258 24.2172L76.8074 24.2586L76.7936 24.3L76.7755 24.3417L76.757 24.3878L76.7387 24.4292L76.7252 24.4709L76.7067 24.5123L76.6883 24.5583L76.6745 24.6L76.6564 24.6415H76.7021H76.7479H76.7936H76.8396H76.8854H76.9311H76.9769H77.023H77.0641H77.1098H77.1559H77.2016H77.2474H77.2932H77.3389H77.3849H77.4306L77.4123 24.6ZM78.8513 25.9805H78.8053H78.764H78.7183H78.6723H78.6265H78.5808H78.5396H78.4936H78.4478H78.4021H78.3563H78.3103H78.2691H78.2234H78.1776H78.1316H78.0859H78.0447H77.9989H77.9529L77.9348 25.9391L77.921 25.8976L77.9026 25.8562L77.8842 25.8102L77.8706 25.769L77.8522 25.7277L77.8338 25.6862L77.8202 25.6448L77.8019 25.6034L77.7834 25.5619L77.7697 25.5205L77.7515 25.4745L77.7331 25.4331L77.7193 25.3917L77.7008 25.3502H77.6551H77.6093H77.5636H77.5179H77.4764H77.4306H77.3849H77.3389H77.2932H77.2474H77.2016H77.1559H77.1098H77.0641H77.023H76.9769H76.9311H76.8854H76.8396H76.7936H76.7479H76.7021H76.6564H76.6106H76.5691H76.5235H76.4777H76.4316H76.3859L76.3678 25.3917L76.3539 25.4331L76.3355 25.4745L76.3171 25.5205L76.3036 25.5619L76.2852 25.6034L76.2668 25.6448L76.253 25.6862L76.2348 25.7277L76.2164 25.769L76.2026 25.8102L76.1844 25.8562L76.166 25.8976L76.1522 25.9391L76.1338 25.9805H76.0881H76.0423H75.9966H75.9505H75.9048H75.8544H75.8087H75.7629H75.7169H75.6712H75.6254H75.5796H75.5336H75.4879H75.4421H75.3918H75.3457H75.3H75.2542H75.2085L75.2266 25.9391L75.245 25.8976L75.2634 25.8562L75.2816 25.8102L75.2954 25.769L75.3138 25.7277L75.3322 25.6862L75.3503 25.6448L75.3687 25.6034L75.3872 25.5573L75.4053 25.5159L75.4237 25.4745L75.4375 25.4331L75.4559 25.3917L75.474 25.3502L75.4925 25.3042L75.5108 25.2628L75.529 25.2213L75.5474 25.1799L75.5658 25.1385L75.5796 25.0971L75.5977 25.051L75.6162 25.0097L75.6346 24.9682L75.6527 24.9268L75.6712 24.8854L75.6896 24.8439L75.7077 24.7979L75.7215 24.7565L75.7399 24.7151L75.7583 24.6736L75.7765 24.6322L75.7949 24.5908L75.8133 24.5448L75.8314 24.5034L75.8498 24.4619L75.8636 24.4205L75.882 24.3791L75.9002 24.3377L75.9186 24.2916L75.937 24.2502L75.9552 24.2088L75.9735 24.1674L75.992 24.126L76.0058 24.0845L76.0239 24.0434L76.0423 23.9973L76.0607 23.956L76.0789 23.9145L76.0973 23.873L76.1157 23.8317L76.1338 23.7902L76.1476 23.7442L76.166 23.7028L76.1844 23.6614L76.2026 23.6199L76.221 23.5785L76.2394 23.5371L76.2576 23.491L76.276 23.4497L76.2898 23.4082L76.3082 23.3668L76.3263 23.3254L76.3447 23.2839L76.3631 23.2379L76.3813 23.1965L76.3997 23.1551L76.4181 23.1137L76.4316 23.0723L76.45 23.0308L76.4685 22.9848L76.4869 22.9434L76.505 22.9019L76.5235 22.8605L76.5418 22.8191L76.56 22.7777L76.5738 22.7317L76.5922 22.6902L76.6106 22.6488L76.6288 22.6074H76.6745H76.7159H76.7617H76.8074H76.8535H76.8946H76.9403H76.9861H77.0322H77.0733H77.119H77.1648H77.2108H77.252H77.2977H77.3435H77.3895H77.4306H77.4764L77.4948 22.6488L77.5132 22.6902L77.5314 22.7317L77.5498 22.7777L77.5636 22.8191L77.5817 22.8605L77.6002 22.9019L77.6185 22.9434L77.637 22.9848L77.6551 23.0308L77.6735 23.0723L77.6919 23.1137L77.7055 23.1551L77.7239 23.1965L77.7423 23.2379L77.7607 23.2839L77.7789 23.3254L77.7972 23.3668L77.8157 23.4082L77.8338 23.4497L77.8476 23.491L77.866 23.5371L77.8842 23.5785L77.9026 23.6199L77.921 23.6614L77.9394 23.7028L77.9575 23.7442L77.9759 23.7902L77.9898 23.8317L78.0079 23.873L78.0263 23.9145L78.0447 23.956L78.0631 23.9973L78.0812 24.0434L78.0997 24.0845L78.1181 24.126L78.1316 24.1674L78.15 24.2088L78.1684 24.2502L78.1866 24.2916L78.205 24.3377L78.2234 24.3791L78.2418 24.4205L78.2599 24.4619L78.2738 24.5034L78.2921 24.5448L78.3103 24.5908L78.3287 24.6322L78.3471 24.6736L78.3655 24.7151L78.3837 24.7565L78.4021 24.7979L78.4159 24.8439L78.434 24.8854L78.4524 24.9268L78.4708 24.9682L78.489 25.0097L78.5074 25.051L78.5258 25.0971L78.5443 25.1385L78.5578 25.1799L78.5762 25.2213L78.5946 25.2628L78.6127 25.3042L78.6311 25.3502L78.6495 25.3917L78.6679 25.4331L78.686 25.4745L78.6999 25.5159L78.7183 25.5573L78.7365 25.6034L78.7548 25.6448L78.7732 25.6862L78.7914 25.7277L78.8098 25.769L78.8282 25.8102L78.8421 25.8562L78.8601 25.8976L78.8786 25.9391L78.8969 25.9805H78.8513ZM74.837 25.5527L74.8002 25.5803L74.7682 25.6034L74.7314 25.631L74.6949 25.654L74.6583 25.6816L74.6215 25.7046L74.585 25.7277L74.5435 25.7506L74.5024 25.7737L74.4612 25.7967L74.4198 25.8148L74.3786 25.8378L74.3329 25.8562L74.2918 25.8746L74.2457 25.893L74.2046 25.9114L74.1634 25.9253L74.122 25.9391L74.0808 25.9529L74.0351 25.9667L73.994 25.9805L73.9479 25.9897L73.9067 25.9989L73.861 26.0081L73.815 26.0173L73.7692 26.0219L73.7188 26.0265L73.6731 26.0312L73.6227 26.0357L73.5767 26.0404L73.5264 26.0449H73.476H73.4256H73.3753H73.3292L73.2835 26.0404L73.2331 26.0357L73.1874 26.0312L73.1417 26.0265L73.0956 26.0219L73.0499 26.0127L73.0041 26.0035L72.963 25.9943L72.917 25.9851L72.8758 25.9713L72.83 25.9621L72.7886 25.9483L72.7474 25.9299L72.7063 25.9161L72.6606 25.8976L72.6191 25.8793L72.578 25.8609L72.5369 25.8424L72.4954 25.8194L72.4589 25.7967L72.4177 25.7737L72.3809 25.7506L72.3443 25.7277L72.3075 25.7L72.271 25.6724L72.2344 25.6448L72.2022 25.6172L72.1703 25.5896L72.138 25.5573L72.1061 25.5298L72.0738 25.4975L72.0419 25.4653L72.0143 25.4331L71.9869 25.3963L71.9593 25.364L71.9363 25.3272L71.9089 25.2904L71.886 25.2536L71.8632 25.2167L71.8402 25.1753L71.8172 25.1385L71.7991 25.0971L71.7807 25.0557L71.7623 25.0142L71.7441 24.9728L71.7303 24.936L71.7119 24.8946L71.7027 24.8531L71.6891 24.8117L71.6799 24.7657L71.6661 24.7243L71.6569 24.6783L71.6523 24.6368L71.6431 24.5908L71.6386 24.5494L71.6339 24.5034L71.6296 24.4573L71.625 24.4113V24.3607V24.3146V24.3055V24.2594L71.6296 24.2088V24.1628L71.6339 24.1167L71.6386 24.0661L71.6477 24.0204L71.6523 23.9743L71.6615 23.9329L71.6753 23.8869L71.6845 23.8409L71.6981 23.7994L71.7119 23.7534L71.7257 23.712L71.7441 23.6659L71.7623 23.6246L71.7807 23.5831L71.7991 23.5417L71.8172 23.5003L71.8402 23.4589L71.8632 23.422L71.886 23.3852L71.9089 23.3484L71.932 23.3116L71.9593 23.2748L71.9869 23.2379L72.0143 23.2011L72.0419 23.1688L72.0738 23.1367L72.1015 23.1044L72.1334 23.0723L72.1656 23.04L72.1976 23.0124L72.2344 22.9802L72.2664 22.9526L72.3029 22.9249L72.3397 22.9019L72.3763 22.8743L72.4131 22.8513L72.4496 22.8283L72.4908 22.8053L72.5322 22.7823L72.5734 22.7593L72.6145 22.7408L72.6559 22.7225L72.7017 22.6994L72.7383 22.6857L72.784 22.6718L72.8255 22.6534L72.8666 22.6442L72.9077 22.6304L72.9537 22.6212L72.9949 22.6074L73.0406 22.5982L73.0864 22.5936L73.1324 22.5844L73.1782 22.5798L73.2239 22.5752L73.2697 22.5706L73.3157 22.5659H73.3661H73.4118H73.4622H73.5125L73.5632 22.5706L73.6136 22.5752H73.6593L73.705 22.5798L73.7554 22.589L73.7968 22.5936L73.8426 22.6028L73.8884 22.612L73.9297 22.6212L73.9709 22.6304L74.0121 22.6396L74.0535 22.6534L74.0946 22.6626L74.1312 22.6764L74.1726 22.6902L74.2138 22.7086L74.2549 22.727L74.2963 22.7455L74.3375 22.7685L74.3786 22.7869L74.4155 22.8099L74.4566 22.8329L74.4932 22.8559L74.5346 22.8789L74.5711 22.9065L74.6077 22.9296L74.6445 22.9572L74.6811 22.9848L74.7179 23.017L74.7544 23.0446L74.7268 23.0815L74.6949 23.1137L74.6673 23.1505L74.6353 23.1873L74.6077 23.2241L74.5803 23.2563L74.5481 23.2931L74.5208 23.3299L74.4932 23.3622L74.4612 23.399L74.4336 23.4359L74.4016 23.4727L74.374 23.5049L74.3467 23.5417L74.3145 23.5785L74.2871 23.6153L74.2549 23.6476L74.2275 23.6844L74.1907 23.6568L74.1542 23.6246L74.1174 23.6015L74.0808 23.5739L74.0443 23.5509L74.0075 23.5278L73.9709 23.5049L73.9297 23.4819L73.8929 23.4635L73.8564 23.445L73.8196 23.4312L73.7784 23.4174L73.7373 23.4036L73.6958 23.3944L73.6501 23.3852L73.6044 23.376L73.5586 23.3714L73.5082 23.3668L73.4576 23.3622H73.4072H73.3615L73.3157 23.3668L73.2743 23.3714L73.2286 23.3806L73.1874 23.3899L73.146 23.4036L73.1049 23.4174L73.0637 23.4359L73.0225 23.4542L72.9857 23.4772L72.9492 23.5003L72.9123 23.5233L72.8804 23.5509L72.8482 23.5785L72.8162 23.6061L72.7886 23.6383L72.7567 23.6706L72.7291 23.7074L72.7063 23.7396L72.6833 23.7764L72.6606 23.8179L72.6375 23.8547L72.6191 23.8961L72.6053 23.9375L72.5872 23.979L72.5734 24.0249L72.5642 24.0707L72.555 24.1121L72.5457 24.1628L72.5412 24.2088L72.5369 24.2548V24.3055V24.3146V24.3607L72.5412 24.4067L72.5457 24.4481L72.5504 24.4942L72.5595 24.5356L72.5688 24.577L72.578 24.6184L72.5918 24.6598L72.6053 24.6966L72.6238 24.7426L72.6421 24.7841L72.6649 24.8256L72.6879 24.8624L72.7109 24.8992L72.7383 24.936L72.7659 24.9682L72.7978 25.0005L72.8255 25.0327L72.8574 25.0603L72.8942 25.0879L72.9308 25.1155L72.9673 25.1385L73.0041 25.1615L73.0453 25.1799L73.0864 25.1984L73.1278 25.2167L73.1736 25.2306L73.2193 25.2444L73.2654 25.2536L73.3111 25.2628L73.3569 25.2674L73.4072 25.272H73.4576H73.5125L73.5632 25.2674L73.6136 25.2628L73.6593 25.2582L73.705 25.2489L73.7511 25.2397L73.7968 25.226L73.8379 25.2167L73.8792 25.1984L73.916 25.1799L73.9571 25.1615L73.9893 25.1431L74.0259 25.1201V25.0741V25.0281V24.982V24.936V24.8854V24.8394V24.7933V24.7473V24.7013H73.9801H73.9387H73.8929H73.8472H73.8014H73.76H73.7142H73.6685H73.6227H73.5814H73.5356H73.4898H73.444H73.4027H73.3569V24.6553V24.6138V24.5678V24.5218V24.4757V24.4343V24.3883V24.3423V24.2963V24.2548V24.2088V24.1628V24.1167V24.0753V24.0296H73.4027H73.4487H73.4945H73.5401H73.5859H73.6317H73.6777H73.7235H73.7692H73.815H73.861H73.9067H73.9525H73.9982H74.0443H74.0901H74.1358H74.1816H74.2275H74.2733H74.3191H74.3648H74.4108H74.4566H74.5024H74.5481H74.5941H74.6399H74.6857H74.7314H74.7774H74.8232H74.869V24.0753V24.1213V24.1674V24.2088V24.2548V24.3008V24.3468V24.3929V24.4389V24.4803V24.5264V24.5724V24.6184V24.6645V24.7105V24.7565V24.7979V24.8439V24.89V24.936V24.982V25.0281V25.0741V25.1155V25.1615V25.2076V25.2536V25.2996V25.3456V25.3871V25.4331V25.4791V25.5251L74.837 25.5527Z" fill="white"/>
<path d="M73.3622 15.0506H75.348V13.5145H73.3622V10.3785H75.4271V8.84235H71.6758V19.9287H75.4585V18.3925H73.3622V15.0506Z" fill="white"/>
<path d="M87.5868 15.3833V17.8857C87.5868 18.3292 87.3818 18.5349 86.9565 18.5349H86.6411C86.1998 18.5349 85.9949 18.3292 85.9949 17.8857V10.8852C85.9949 10.4418 86.1998 10.236 86.6411 10.236H86.9248C87.3504 10.236 87.5554 10.4418 87.5554 10.8852V13.0552H89.2102V10.7902C89.2102 9.41245 88.5482 8.74722 87.1772 8.74722H86.3574C84.9864 8.74722 84.3084 9.42816 84.3084 10.8062V17.9647C84.3084 19.3428 84.9864 20.0237 86.3574 20.0237H87.1929C88.5642 20.0237 89.2418 19.3428 89.2418 17.9647V15.3833H87.5868Z" fill="white"/>
<path d="M81.7303 19.929H83.4169V8.84254H81.7303V19.929Z" fill="white"/>
<path d="M79.2828 13.7678C79.2828 14.2113 79.0781 14.4173 78.6525 14.4173H77.9589V10.3311H78.6525C79.0781 10.3311 79.2828 10.5369 79.2828 10.9803V13.7678ZM78.9203 8.8423H76.2725V19.9287H77.9589V15.9058H78.9203C80.2916 15.9058 80.9692 15.2249 80.9692 13.8472V10.9012C80.9692 9.52324 80.2916 8.8423 78.9203 8.8423Z" fill="white"/>
<path fill-rule="evenodd" clip-rule="evenodd" d="M75.6544 29.9531H85.3086L80.3809 31.5781L75.6544 29.9531Z" fill="white"/>
<defs>
<linearGradient id="paint0_linear_2423_2552" x1="6.81818" y1="-16.7471" x2="28.9586" y2="25.0646" gradientUnits="userSpaceOnUse">
<stop stop-color="#818181"/>
<stop offset="1" stop-color="#1E1E1E"/>
</linearGradient>
<linearGradient id="paint1_linear_2423_2552" x1="66.8182" y1="-16.7471" x2="88.9586" y2="25.0646" gradientUnits="userSpaceOnUse">
<stop stop-color="#818181"/>
<stop offset="1" stop-color="#1E1E1E"/>
</linearGradient>
</defs>
</svg>
