<svg width="22" height="16" viewBox="0 0 22 16" fill="none" xmlns="http://www.w3.org/2000/svg">
<path d="M3.71211 16C2.71211 16 1.85794 15.6417 1.14961 14.925C0.441276 14.2083 0.0704427 13.3417 0.0371094 12.325C0.0371094 12.175 0.0454427 12.025 0.0621094 11.875C0.078776 11.725 0.103776 11.575 0.137109 11.425L2.23711 3.025C2.47044 2.125 2.94544 1.39583 3.66211 0.8375C4.37878 0.279167 5.19544 0 6.11211 0H15.8621C16.7788 0 17.5954 0.279167 18.3121 0.8375C19.0288 1.39583 19.5038 2.125 19.7371 3.025L21.8371 11.425C21.8704 11.575 21.8996 11.7292 21.9246 11.8875C21.9496 12.0458 21.9621 12.2 21.9621 12.35C21.9621 13.3667 21.5996 14.2292 20.8746 14.9375C20.1496 15.6458 19.2788 16 18.2621 16C17.5621 16 16.9121 15.8167 16.3121 15.45C15.7121 15.0833 15.2621 14.5833 14.9621 13.95L14.2621 12.5C14.1788 12.3333 14.0538 12.2083 13.8871 12.125C13.7204 12.0417 13.5454 12 13.3621 12H8.61211C8.42878 12 8.25378 12.0417 8.08711 12.125C7.92044 12.2083 7.79544 12.3333 7.71211 12.5L7.01211 13.95C6.71211 14.5833 6.26211 15.0833 5.66211 15.45C5.06211 15.8167 4.41211 16 3.71211 16ZM3.78711 14C4.10378 14 4.39128 13.9167 4.64961 13.75C4.90794 13.5833 5.10378 13.3583 5.23711 13.075L5.93711 11.65C6.18711 11.1333 6.55378 10.7292 7.03711 10.4375C7.52044 10.1458 8.04544 10 8.61211 10H13.3621C13.9288 10 14.4538 10.15 14.9371 10.45C15.4204 10.75 15.7954 11.15 16.0621 11.65L16.7621 13.075C16.8954 13.3583 17.0913 13.5833 17.3496 13.75C17.6079 13.9167 17.8954 14 18.2121 14C18.6788 14 19.0788 13.8458 19.4121 13.5375C19.7454 13.2292 19.9204 12.8417 19.9371 12.375C19.9371 12.3917 19.9204 12.2333 19.8871 11.9L17.7871 3.525C17.6704 3.075 17.4371 2.70833 17.0871 2.425C16.7371 2.14167 16.3288 2 15.8621 2H6.11211C5.64544 2 5.23294 2.14167 4.87461 2.425C4.51628 2.70833 4.28711 3.075 4.18711 3.525L2.08711 11.9C2.05378 12 2.03711 12.15 2.03711 12.35C2.03711 12.8167 2.20794 13.2083 2.54961 13.525C2.89128 13.8417 3.30378 14 3.78711 14ZM12.4871 7C12.7704 7 13.0079 6.90417 13.1996 6.7125C13.3913 6.52083 13.4871 6.28333 13.4871 6C13.4871 5.71667 13.3913 5.47917 13.1996 5.2875C13.0079 5.09583 12.7704 5 12.4871 5C12.2038 5 11.9663 5.09583 11.7746 5.2875C11.5829 5.47917 11.4871 5.71667 11.4871 6C11.4871 6.28333 11.5829 6.52083 11.7746 6.7125C11.9663 6.90417 12.2038 7 12.4871 7ZM14.4871 5C14.7704 5 15.0079 4.90417 15.1996 4.7125C15.3913 4.52083 15.4871 4.28333 15.4871 4C15.4871 3.71667 15.3913 3.47917 15.1996 3.2875C15.0079 3.09583 14.7704 3 14.4871 3C14.2038 3 13.9663 3.09583 13.7746 3.2875C13.5829 3.47917 13.4871 3.71667 13.4871 4C13.4871 4.28333 13.5829 4.52083 13.7746 4.7125C13.9663 4.90417 14.2038 5 14.4871 5ZM14.4871 9C14.7704 9 15.0079 8.90417 15.1996 8.7125C15.3913 8.52083 15.4871 8.28333 15.4871 8C15.4871 7.71667 15.3913 7.47917 15.1996 7.2875C15.0079 7.09583 14.7704 7 14.4871 7C14.2038 7 13.9663 7.09583 13.7746 7.2875C13.5829 7.47917 13.4871 7.71667 13.4871 8C13.4871 8.28333 13.5829 8.52083 13.7746 8.7125C13.9663 8.90417 14.2038 9 14.4871 9ZM16.4871 7C16.7704 7 17.0079 6.90417 17.1996 6.7125C17.3913 6.52083 17.4871 6.28333 17.4871 6C17.4871 5.71667 17.3913 5.47917 17.1996 5.2875C17.0079 5.09583 16.7704 5 16.4871 5C16.2038 5 15.9663 5.09583 15.7746 5.2875C15.5829 5.47917 15.4871 5.71667 15.4871 6C15.4871 6.28333 15.5829 6.52083 15.7746 6.7125C15.9663 6.90417 16.2038 7 16.4871 7ZM7.48711 8.5C7.70378 8.5 7.88294 8.42917 8.02461 8.2875C8.16628 8.14583 8.23711 7.96667 8.23711 7.75V6.75H9.23711C9.45378 6.75 9.63294 6.67917 9.77461 6.5375C9.91628 6.39583 9.98711 6.21667 9.98711 6C9.98711 5.78333 9.91628 5.60417 9.77461 5.4625C9.63294 5.32083 9.45378 5.25 9.23711 5.25H8.23711V4.25C8.23711 4.03333 8.16628 3.85417 8.02461 3.7125C7.88294 3.57083 7.70378 3.5 7.48711 3.5C7.27044 3.5 7.09128 3.57083 6.94961 3.7125C6.80794 3.85417 6.73711 4.03333 6.73711 4.25V5.25H5.73711C5.52044 5.25 5.34128 5.32083 5.19961 5.4625C5.05794 5.60417 4.98711 5.78333 4.98711 6C4.98711 6.21667 5.05794 6.39583 5.19961 6.5375C5.34128 6.67917 5.52044 6.75 5.73711 6.75H6.73711V7.75C6.73711 7.96667 6.80794 8.14583 6.94961 8.2875C7.09128 8.42917 7.27044 8.5 7.48711 8.5Z" fill="#E3E3E3"/>
</svg>
