<svg width="26" height="26" viewBox="0 0 26 26" fill="none" xmlns="http://www.w3.org/2000/svg">
<path fill-rule="evenodd" clip-rule="evenodd" d="M7.63818 3.30448C9.06033 1.88233 10.9892 1.08337 13.0004 1.08337C15.0116 1.08337 16.9405 1.88233 18.3626 3.30448C19.7848 4.72663 20.5837 6.65548 20.5837 8.66671C20.5837 12.2988 21.3606 14.5542 22.0765 15.8667C22.4359 16.5257 22.7859 16.958 23.029 17.2146C23.1509 17.3432 23.2466 17.4285 23.3043 17.4766C23.3331 17.5006 23.3525 17.5153 23.3608 17.5215C23.3621 17.5225 23.3631 17.5233 23.3639 17.5238C23.7523 17.7906 23.9241 18.2786 23.7873 18.7306C23.6489 19.1875 23.2278 19.5 22.7504 19.5H3.25041C2.77302 19.5 2.3519 19.1875 2.21356 18.7306C2.07669 18.2786 2.24855 17.7906 2.63691 17.5238C2.63767 17.5233 2.6387 17.5225 2.64 17.5215C2.64834 17.5153 2.66769 17.5006 2.69653 17.4766C2.75418 17.4285 2.84993 17.3432 2.97177 17.2146C3.2149 16.958 3.56491 16.5257 3.92436 15.8667C4.64025 14.5542 5.41708 12.2988 5.41708 8.66671C5.41708 6.65548 6.21603 4.72663 7.63818 3.30448ZM2.64786 17.5164C2.64794 17.5163 2.64803 17.5163 2.64811 17.5162C2.64811 17.5162 2.6481 17.5162 2.6481 17.5162L2.64786 17.5164ZM5.57884 17.3334H20.422C20.3395 17.1983 20.2568 17.0554 20.1744 16.9042C19.2653 15.2375 18.4171 12.618 18.4171 8.66671C18.4171 7.23012 17.8464 5.85237 16.8306 4.83655C15.8148 3.82072 14.437 3.25004 13.0004 3.25004C11.5638 3.25004 10.1861 3.82072 9.17025 4.83655C8.15443 5.85237 7.58374 7.23012 7.58374 8.66671C7.58374 12.618 6.73557 15.2375 5.82646 16.9042C5.74402 17.0554 5.66127 17.1983 5.57884 17.3334Z" fill="currentColor"/>
<path fill-rule="evenodd" clip-rule="evenodd" d="M10.5819 21.8129C11.0995 21.5127 11.7624 21.6889 12.0626 22.2064C12.1578 22.3706 12.2945 22.5069 12.459 22.6016C12.6234 22.6963 12.8099 22.7462 12.9997 22.7462C13.1895 22.7462 13.3759 22.6963 13.5404 22.6016C13.7048 22.5069 13.8415 22.3706 13.9368 22.2064C14.237 21.6889 14.8999 21.5127 15.4174 21.8129C15.935 22.1131 16.1111 22.7761 15.8109 23.2936C15.5252 23.7861 15.1152 24.1949 14.6218 24.4791C14.1284 24.7633 13.569 24.9128 12.9997 24.9128C12.4303 24.9128 11.8709 24.7633 11.3776 24.4791C10.8842 24.1949 10.4741 23.7861 10.1884 23.2936C9.88821 22.7761 10.0644 22.1131 10.5819 21.8129Z" fill="currentColor"/>
</svg>
