<svg width="30" height="30" viewBox="0 0 30 30" fill="none" xmlns="http://www.w3.org/2000/svg">
<path fill-rule="evenodd" clip-rule="evenodd" d="M16.7478 1.35332C17.2568 1.57428 17.5592 2.10437 17.4904 2.65499L16.416 11.2499H26.25C26.735 11.2499 27.1763 11.5305 27.382 11.9698C27.5877 12.409 27.5208 12.9276 27.2103 13.3002L14.7103 28.3002C14.355 28.7265 13.7613 28.8675 13.2523 28.6466C12.7433 28.4256 12.4408 27.8955 12.5097 27.3449L13.584 18.7499H3.75002C3.26499 18.7499 2.82375 18.4694 2.61803 18.0301C2.4123 17.5909 2.47924 17.0723 2.78974 16.6997L15.2897 1.69972C15.645 1.27342 16.2387 1.13236 16.7478 1.35332ZM6.41882 16.2499H15C15.3586 16.2499 15.6998 16.4039 15.9371 16.6727C16.1744 16.9415 16.2848 17.2992 16.2404 17.655L15.5192 23.4244L23.5812 13.7499H15C14.6415 13.7499 14.3002 13.596 14.0629 13.3272C13.8256 13.0584 13.7152 12.7007 13.7597 12.3449L14.4808 6.57552L6.41882 16.2499Z" fill="currentColor"/>
</svg>
